<svg width="48" height="48" viewBox="0 0 48 48" fill="none" xmlns="http://www.w3.org/2000/svg">
<path d="M39.6961 7.19985C37.8928 5.12652 35.6655 3.46438 33.1647 2.32578C30.6639 1.18716 27.9478 0.598602 25.2001 0.599856C24.3534 0.602052 23.5077 0.658165 22.6681 0.767855C19.4058 1.18612 16.3054 2.43543 13.6646 4.39603C11.0238 6.35662 8.9309 8.96277 7.5866 11.9646C6.2423 14.9664 5.69166 18.2633 5.98749 21.5389C6.28332 24.8146 7.4157 27.9594 9.27606 30.6719L3.51606 38.0759C2.85003 38.9289 2.43726 39.9522 2.3249 41.0286C2.21253 42.105 2.40509 43.1914 2.88059 44.1637C3.35607 45.1359 4.09536 45.9549 5.01404 46.5272C5.9327 47.0994 6.99375 47.4018 8.07606 47.3998C8.95027 47.4011 9.81321 47.2028 10.5992 46.8201C11.3853 46.4375 12.0737 45.8806 12.6121 45.1918L18.3601 37.8718C21.4957 39.0609 24.886 39.4164 28.2001 38.9039C31.6125 38.3853 34.8219 36.9566 37.4908 34.7679C40.1596 32.5793 42.1891 29.7116 43.3657 26.4668C44.5423 23.222 44.8225 19.7199 44.1766 16.3293C43.5309 12.9388 41.983 9.78498 39.6961 7.19985ZM41.3521 22.0559C40.8891 25.534 39.3159 28.77 36.8662 31.2824C34.4166 33.7946 31.2214 35.4492 27.7561 35.9999C26.9182 36.1281 26.0718 36.1923 25.2241 36.1918C22.8607 36.1966 20.5252 35.6804 18.3841 34.6798C18.2032 34.5965 18.0072 34.5516 17.8081 34.5479C17.6166 34.5477 17.4276 34.5909 17.2552 34.674C17.0827 34.7571 16.9312 34.878 16.8121 35.0279L10.2601 43.4278C9.99107 43.742 9.65549 43.992 9.2777 44.1601C8.89992 44.3283 8.48943 44.4102 8.07606 44.3998C7.55711 44.3994 7.04871 44.2533 6.6087 43.9782C6.16871 43.7029 5.81478 43.3098 5.58722 42.8434C5.35964 42.3771 5.26757 41.8561 5.32146 41.34C5.37536 40.8238 5.57306 40.3332 5.89206 39.9239L12.4561 31.5238C12.6312 31.297 12.7262 31.0185 12.7262 30.7318C12.7262 30.4452 12.6312 30.1667 12.4561 29.9398C10.8028 27.8281 9.69752 25.3403 9.23873 22.6978C8.77994 20.0555 8.98187 17.3407 9.82653 14.7952C10.6712 12.2498 12.1324 9.95284 14.0799 8.10897C16.0273 6.26508 18.4008 4.93153 20.9884 4.22715C23.5762 3.52276 26.298 3.46941 28.9114 4.07182C31.5247 4.67424 33.9486 5.91373 35.9668 7.67988C37.9851 9.44602 39.5352 11.684 40.479 14.1943C41.4228 16.7048 41.7309 19.4095 41.3761 22.0679L41.3521 22.0559Z" fill="#1D1C1D"/>
<path d="M25.2 8.77185C22.4134 8.77725 19.7304 9.82832 17.6815 11.7171C15.6328 13.6059 14.3675 16.1949 14.136 18.9719H12.336C12.2353 18.9704 12.1364 18.9992 12.0522 19.0544C11.968 19.1097 11.9022 19.1889 11.8635 19.2819C11.8247 19.3749 11.8147 19.4775 11.8348 19.5762C11.8549 19.6749 11.9041 19.7654 11.976 19.8359L15.168 23.0399C15.2644 23.1338 15.3936 23.1863 15.528 23.1863C15.6625 23.1863 15.7917 23.1338 15.888 23.0399L19.092 19.8359C19.164 19.7654 19.2132 19.6749 19.2333 19.5762C19.2534 19.4775 19.2433 19.3749 19.2046 19.2819C19.1658 19.1889 19.1001 19.1097 19.0159 19.0544C18.9316 18.9992 18.8328 18.9704 18.732 18.9719H17.088C17.3058 17.0856 18.18 15.3362 19.5579 14.0298C20.9358 12.7235 22.7292 11.9435 24.6243 11.8265C26.5194 11.7095 28.3953 12.2629 29.9233 13.3899C31.4514 14.5169 32.5342 16.1456 32.9823 17.9906C33.4303 19.8357 33.2149 21.7796 32.3739 23.4818C31.5328 25.1841 30.1197 26.5362 28.3821 27.3013C26.6443 28.0665 24.6928 28.1958 22.8693 27.6669C21.0457 27.1378 19.4665 25.9842 18.408 24.4079C18.1861 24.0794 17.8432 23.8519 17.4543 23.7754C17.0652 23.6991 16.6618 23.7797 16.332 23.9999C16.0027 24.224 15.775 24.5689 15.6987 24.96C15.6223 25.3509 15.7033 25.7562 15.924 26.0878C16.9936 27.6772 18.456 28.9631 20.1691 29.8204C21.8823 30.678 23.788 31.0779 25.7014 30.9816C27.6147 30.8853 29.4706 30.296 31.089 29.2709C32.7073 28.2458 34.0332 26.8196 34.9378 25.1309C35.8425 23.4422 36.2952 21.5483 36.252 19.6329C36.2088 17.7177 35.671 15.8462 34.6911 14.1999C33.7113 12.5538 32.3224 11.1889 30.6594 10.2378C28.9965 9.28671 27.1158 8.78172 25.2 8.77185Z" fill="#1D1C1D"/>
</svg>
